<?xml version="1.0" encoding="utf-8"?>
<!-- Generator: Adobe Illustrator 25.2.1, SVG Export Plug-In . SVG Version: 6.00 Build 0)  -->
<svg version="1.1" xmlns="http://www.w3.org/2000/svg" xmlns:xlink="http://www.w3.org/1999/xlink" x="0px" y="0px"
	 viewBox="0 0 1920 947.33" style="enable-background:new 0 0 1920 947.33;" xml:space="preserve">
<style type="text/css">
	.st0{fill:none;}
	.st1{fill:#F54E65;}
	.st2{fill:#222449;}
	.st3{opacity:0.7;clip-path:url(#SVGID_2_);}
	.st4{fill:#A124BB;}
	.st5{fill:#FF9DA4;}
	.st6{fill:#2AD795;}
	.st7{fill:#59D6FF;}
	.st8{fill:#FF9738;}
	.st9{opacity:0.7;clip-path:url(#SVGID_4_);}
	.st10{fill:#FFFFFF;}
	.st11{fill:#3750BD;}
	.st12{fill:none;stroke:#FFFFFF;stroke-width:1.8959;stroke-miterlimit:10;}
	.st13{clip-path:url(#SVGID_14_);}
	.st14{fill:none;stroke:#A124BB;stroke-width:7;stroke-miterlimit:10;}
	.st15{clip-path:url(#XMLID_13_);fill:#2AD795;}
	.st16{clip-path:url(#XMLID_13_);fill:#FF9738;}
	.st17{clip-path:url(#XMLID_13_);fill:#FFFFFF;}
	.st18{clip-path:url(#XMLID_13_);}
	.st19{clip-path:url(#SVGID_16_);fill:#FF9DA4;}
	.st20{clip-path:url(#SVGID_16_);fill:#2AD795;}
	.st21{clip-path:url(#SVGID_16_);fill:#FF9738;}
	.st22{clip-path:url(#SVGID_16_);fill:none;stroke:#3750BD;stroke-width:10;stroke-miterlimit:10;}
	.st23{clip-path:url(#XMLID_14_);}
	.st24{fill:url(#SVGID_17_);}
	.st25{clip-path:url(#XMLID_15_);}
	.st26{fill:none;stroke:#FF9DA4;stroke-width:14;stroke-miterlimit:10;}
	.st27{clip-path:url(#XMLID_15_);fill:#59D6FF;}
	.st28{clip-path:url(#XMLID_15_);fill:#A124BB;}
	.st29{clip-path:url(#XMLID_15_);fill:#FF9738;}
	.st30{clip-path:url(#XMLID_15_);fill:none;stroke:#FF9738;stroke-width:7;stroke-miterlimit:10;}
	.st31{clip-path:url(#XMLID_15_);fill:#2AD795;}
	.st32{clip-path:url(#XMLID_15_);fill:#FFFFFF;}
	.st33{clip-path:url(#SVGID_19_);fill:#FF9738;}
	.st34{clip-path:url(#SVGID_19_);fill:#F54E65;}
	.st35{clip-path:url(#SVGID_19_);fill:#3750BD;}
	.st36{clip-path:url(#SVGID_19_);fill:#FFFFFF;}
	.st37{clip-path:url(#SVGID_19_);fill:#A124BB;}
	.st38{clip-path:url(#SVGID_19_);fill:#59D6FF;}
	.st39{clip-path:url(#SVGID_19_);fill:#2AD795;}
	.st40{clip-path:url(#SVGID_21_);fill:#F54E65;}
	.st41{clip-path:url(#SVGID_21_);fill:#FF9738;}
	.st42{clip-path:url(#SVGID_21_);fill:#A124BB;}
	.st43{clip-path:url(#SVGID_21_);}
	.st44{fill:none;stroke:#2AD795;stroke-width:6;stroke-miterlimit:10;}
	.st45{clip-path:url(#SVGID_21_);fill:none;stroke:#F54E65;stroke-width:7;stroke-miterlimit:10;}
	.st46{clip-path:url(#SVGID_21_);fill:#FF9DA4;}
	.st47{clip-path:url(#SVGID_21_);fill:#59D6FF;}
	.st48{clip-path:url(#SVGID_21_);fill:none;stroke:#3750BD;stroke-width:8;stroke-miterlimit:10;}
	.st49{clip-path:url(#SVGID_39_);}
	.st50{clip-path:url(#XMLID_22_);fill:#2AD795;}
	.st51{clip-path:url(#XMLID_22_);fill:#FF9738;}
	.st52{clip-path:url(#XMLID_22_);fill:#FFFFFF;}
	.st53{clip-path:url(#XMLID_22_);}
	.st54{clip-path:url(#SVGID_41_);fill:#FF9DA4;}
	.st55{clip-path:url(#SVGID_41_);fill:#2AD795;}
	.st56{clip-path:url(#SVGID_41_);fill:#FF9738;}
	.st57{clip-path:url(#SVGID_41_);fill:none;stroke:#3750BD;stroke-width:10;stroke-miterlimit:10;}
	.st58{clip-path:url(#XMLID_23_);}
	.st59{fill:url(#SVGID_42_);}
	.st60{clip-path:url(#XMLID_24_);}
	.st61{clip-path:url(#XMLID_24_);fill:#59D6FF;}
	.st62{clip-path:url(#XMLID_24_);fill:#A124BB;}
	.st63{clip-path:url(#XMLID_24_);fill:#FF9738;}
	.st64{clip-path:url(#XMLID_24_);fill:none;stroke:#FF9738;stroke-width:7;stroke-miterlimit:10;}
	.st65{clip-path:url(#XMLID_24_);fill:#2AD795;}
	.st66{clip-path:url(#XMLID_24_);fill:#FFFFFF;}
	.st67{clip-path:url(#SVGID_44_);fill:#FF9738;}
	.st68{clip-path:url(#SVGID_44_);fill:#F54E65;}
	.st69{clip-path:url(#SVGID_44_);fill:#3750BD;}
	.st70{clip-path:url(#SVGID_44_);fill:#FFFFFF;}
	.st71{clip-path:url(#SVGID_44_);fill:#A124BB;}
	.st72{clip-path:url(#SVGID_44_);fill:#59D6FF;}
	.st73{clip-path:url(#SVGID_44_);fill:#2AD795;}
	.st74{clip-path:url(#SVGID_46_);fill:#F54E65;}
	.st75{clip-path:url(#SVGID_46_);fill:#FF9738;}
	.st76{clip-path:url(#SVGID_46_);fill:#A124BB;}
	.st77{clip-path:url(#SVGID_46_);}
	.st78{clip-path:url(#SVGID_46_);fill:none;stroke:#F54E65;stroke-width:7;stroke-miterlimit:10;}
	.st79{clip-path:url(#SVGID_46_);fill:#FF9DA4;}
	.st80{clip-path:url(#SVGID_46_);fill:#59D6FF;}
	.st81{clip-path:url(#SVGID_46_);fill:none;stroke:#3750BD;stroke-width:8;stroke-miterlimit:10;}
</style>
<pattern  x="-3054.2" y="1162.36" width="80" height="120" patternUnits="userSpaceOnUse" id="Unnamed_Pattern_2" viewBox="20.97 -140.97 80 120" style="overflow:visible;">
	<g>
		<rect x="20.97" y="-140.97" class="st0" width="80" height="120"/>
		
			<ellipse transform="matrix(0.7071 -0.7071 0.7071 0.7071 44.4034 65.2554)" class="st1" cx="100.97" cy="-20.97" rx="20.97" ry="20.97"/>
		
			<ellipse transform="matrix(0.7071 -0.7071 0.7071 0.7071 20.972 8.6869)" class="st1" cx="20.97" cy="-20.97" rx="20.97" ry="20.97"/>
		
			<ellipse transform="matrix(0.7071 -0.7071 0.7071 0.7071 75.1141 19.3976)" class="st1" cx="60.97" cy="-80.97" rx="20.97" ry="20.97"/>
		
			<ellipse transform="matrix(0.7071 -0.7071 0.7071 0.7071 129.2562 30.1082)" class="st1" cx="100.97" cy="-140.97" rx="20.97" ry="20.97"/>
		
			<ellipse transform="matrix(0.7071 -0.7071 0.7071 0.7071 105.8248 -26.4603)" class="st1" cx="20.97" cy="-140.97" rx="20.97" ry="20.97"/>
	</g>
</pattern>
<g id="背景">
	<g>
		<defs>
			<rect id="SVGID_1_" x="2691.96" y="1162.36" width="1920" height="1080"/>
		</defs>
		<clipPath id="SVGID_2_">
			<use xlink:href="#SVGID_1_"  style="overflow:visible;"/>
		</clipPath>
		<g class="st3">
			<g>
				<path class="st1" d="M3337.28,736.73c0,0,150.62,310.36-160.78,432.11c-256.76,100.39-291.34-45.31-463.27,302.23
					c-171.93,347.54-464.41,345.72-555.83,324.92s-413.38-76.07-402.19-325.9c11.19-249.83,394.95-1249.45,840.52-1148.41
					C3041.3,422.73,3337.28,736.73,3337.28,736.73z"/>
				<path class="st7" d="M1280.9,1898.97c0,0-10.56-483.38,218.77-767.03s276.56-6.25,666.1-513.14
					c244.93-318.71,637.78-65.67,646.14,246.28c8.36,311.95-250.51,655.69-511.45,632.68c-260.94-23.01-325.01,238.37-324.46,496.73
					c1.28,591.32-588.57,466.16-665.14,265.62C1234.3,2059.56,1280.9,1898.97,1280.9,1898.97z"/>
			</g>
		</g>
	</g>
	<g>
		<defs>
			<rect id="SVGID_3_" y="1162.36" width="1920" height="1080"/>
		</defs>
		<clipPath id="SVGID_4_">
			<use xlink:href="#SVGID_3_"  style="overflow:visible;"/>
		</clipPath>
		<g class="st9">
			<g>
				<path class="st1" d="M645.32,736.73c0,0,150.62,310.36-160.78,432.11c-256.76,100.39-291.34-45.31-463.27,302.23
					s-464.41,345.72-555.83,324.92s-413.38-76.07-402.19-325.9S-541.8,220.65-96.23,321.69
					C349.34,422.73,645.32,736.73,645.32,736.73z"/>
				<path class="st6" d="M3173.82,273.9c0,0,150.62,310.36-160.78,432.11c-256.76,100.39-291.34-45.31-463.27,302.23
					s-464.41,345.72-555.83,324.92c-91.42-20.8-413.38-76.07-402.19-325.9S1986.7-242.19,2432.27-141.15
					C2877.84-40.11,3173.82,273.9,3173.82,273.9z"/>
				<path class="st7" d="M-1411.06,1898.97c0,0-10.56-483.38,218.77-767.03s276.56-6.25,666.1-513.14
					c244.93-318.71,637.78-65.67,646.14,246.28s-250.51,655.69-511.45,632.68c-260.94-23.01-325.01,238.37-324.46,496.73
					c1.28,591.32-588.57,466.16-665.14,265.62C-1457.66,2059.56-1411.06,1898.97-1411.06,1898.97z"/>
			</g>
		</g>
	</g>
</g>
<g id="點綴">
	<g>
		<g>
			<g>
				<path class="st10" d="M798.98,218.89c-0.84-1.54-1.75-3.05-2.8-4.63l-5.88-8.93l-5.84,8.88c-1,1.5-2.04,3.3-2.8,4.67h-7.59
					c2.46-3.13,3.04-3.92,3.92-5.13l8.84-12.43l-7.68-10.85c-1.13-1.58-2.38-3.21-3.67-4.8h7.47c0.54,1.25,1.54,3,2.67,4.67
					l4.75,7.09l4.63-7.09c1.54-2.42,2.04-3.25,2.63-4.67h7.42c-1.17,1.46-2.38,3.05-3.63,4.8l-7.68,10.8l8.84,12.43
					c0.96,1.38,1.96,2.67,4,5.17H798.98z"/>
				<path class="st10" d="M1115.01,218.89c-0.83-1.54-1.75-3.05-2.79-4.63l-5.88-8.93l-5.84,8.88c-1,1.5-2.04,3.3-2.79,4.67h-7.59
					c2.46-3.13,3.05-3.92,3.92-5.13l8.84-12.43l-7.68-10.85c-1.13-1.58-2.38-3.21-3.67-4.8h7.47c0.54,1.25,1.54,3,2.67,4.67
					l4.76,7.09l4.63-7.09c1.54-2.42,2.04-3.25,2.63-4.67h7.43c-1.17,1.46-2.38,3.05-3.63,4.8l-7.68,10.8l8.84,12.43
					c0.96,1.38,1.96,2.67,4,5.17H1115.01z"/>
				<g>
					<g>
						<path class="st10" d="M538.13,196.38c0,7.32-0.61,18.31-4.47,25.36c-1.01-0.83-3.29-2.1-4.56-2.59
							c3.59-6.53,3.9-16.03,3.9-22.78v-12.66h36.54v4.73h-31.41V196.38z M548.64,211.58c-2.1,3.33-5.13,7.18-7.45,9.51
							c-1.05-0.79-3.11-2.15-4.38-2.8c2.5-2.15,5.21-5.43,6.88-8.28L548.64,211.58z M556.26,208.69v8.89c0,2.37-0.44,3.64-2.1,4.34
							c-1.62,0.74-3.9,0.74-7.01,0.74c-0.18-1.4-0.83-3.29-1.45-4.6c1.93,0.04,4.07,0.04,4.64,0.04c0.66,0,0.83-0.13,0.83-0.66
							v-8.76h-10.16V191.6h7.75c0.57-1.1,1.05-2.19,1.36-3.11l6.26,0.74c-0.53,0.79-1.05,1.62-1.58,2.37h11.74v17.09H556.26z
							 M546.1,198.3h15.07v-2.8H546.1V198.3z M546.1,204.79h15.07v-2.85H546.1V204.79z M562.48,209.96c2.32,2.63,5.74,6.4,7.45,8.76
							l-4.47,2.54c-1.53-2.32-4.78-6.26-7.14-9.16L562.48,209.96z"/>
						<path class="st10" d="M592.97,194.1l-0.04-1.71c-1.53,1.18-3.07,2.23-4.69,3.15h18.49v13.76h-15.2
							c-0.09,0.44-0.13,0.92-0.22,1.36h16.47v11.7h-4.56v-1.18h-8.1v1.36h-4.34v-9.07c-0.61,2.76-1.53,5.43-2.8,7.67
							c-1.01-0.66-3.29-1.62-4.56-1.97c3.46-5.61,3.81-13.41,3.81-18.57v-4.42l-1.01,0.53c-0.48-1.23-1.84-3.86-2.72-4.99
							c5.08-2.15,10.21-5.74,13.01-9.94l4.78,1.88c-0.26,0.39-0.53,0.75-0.79,1.1c3.24,1.88,6.88,4.03,8.89,5.48l-2.67,4.38
							c-1.18-0.96-2.89-2.1-4.78-3.33v2.85H592.97z M602,205.71v-1.8h-10.03c0,0.57-0.04,1.18-0.09,1.8H602z M592.05,199.14v1.45
							v0.26H602v-1.71H592.05z M601.65,191.03c-1.4-0.88-2.85-1.8-4.16-2.63c-0.92,0.88-1.88,1.8-2.85,2.63H601.65z M595.12,214.21
							v3.11h8.1v-3.11H595.12z M615.14,210.75h-4.91V186.3h4.91V210.75z M623.15,181.92v34.52c0,2.8-0.53,4.21-2.15,5.04
							c-1.53,0.88-4.03,1.05-7.54,1.05c-0.22-1.45-0.83-3.77-1.53-5.21c2.23,0.04,4.51,0.04,5.21,0.04c0.7,0,1.01-0.22,1.01-0.96
							v-34.48H623.15z"/>
						<path class="st10" d="M670.81,198.17c0,1.01-0.04,2.02-0.09,3.15c1.75,8.24,4.29,13.23,9.46,17.39
							c-1.27,0.96-2.63,2.5-3.29,3.9c-3.72-3.37-6.18-7.01-7.97-11.7c-1.4,4.16-3.9,8.37-8.06,11.92c-0.48-0.92-1.53-2.19-2.45-3.07
							c-0.22,0.88-0.7,1.4-1.67,1.8c-1.4,0.57-3.37,0.61-6.13,0.61c-0.22-1.14-0.88-2.63-1.4-3.68c1.62,0.09,3.5,0.09,4.03,0.09
							c0.57-0.04,0.74-0.18,0.74-0.66v-12.62h-15.95v-4.47h15.68v-13.05h-15.2v-4.38h22.34v4.38h-2.54v9.94
							c2.45-3.9,4.12-9.94,4.99-15.99l4.95,0.83c-0.31,1.88-0.7,3.72-1.14,5.56h8.06l0.7-0.22l3.5,0.96
							c-0.7,4.34-1.8,9.33-2.76,12.48l-4.07-1.18c0.44-1.93,0.96-4.73,1.36-7.49h-8.06c-1.01,3.15-2.15,6-3.55,8.15h0.35v4.47h-4.07
							v12.7v0.22c6.83-6.35,7.58-14.76,7.58-20.15v-3.33h4.64V198.17z M644.14,217.1v1.58h-4.21v-11.56h11.79v9.99H644.14z
							 M651.1,189.5v9.59h-10.95v-9.59H651.1z M647.16,192.87h-3.33v2.89h3.33V192.87z M644.14,210.66v2.89h3.55v-2.89H644.14z
							 M658.33,200.85h3.9c-0.88-0.7-2.67-1.75-3.9-2.41V200.85z"/>
						<path class="st10" d="M731.13,190.42v32.11h-5.13v-2.37h-26.28v2.41h-4.91v-32.15h10.16v-8.19h5.13v8.19h5.26v-8.19h5.12v8.19
							H731.13z M699.72,195.5v7.32h5.26v-7.32H699.72z M699.72,215.04h5.26v-7.27h-5.26V215.04z M710.11,195.5v7.32h5.26v-7.32
							H710.11z M710.11,207.77v7.27h5.26v-7.27H710.11z M720.49,195.5v7.32h5.52v-7.32H720.49z M726.01,215.04v-7.27h-5.52v7.27
							H726.01z"/>
					</g>
					<g>
						<path class="st10" d="M856.53,193.44c-0.48,3.55-2.06,5.78-7.14,6.97c-0.31-0.88-1.27-2.37-2.06-3.07
							c3.68-0.66,4.86-1.8,5.3-3.9h-4.38v-3.59h7.32v-2.15h-5.83v-3.5h5.83v-2.32h4.6v2.32h5.87v3.5h-5.87v2.15h7.05v3.59h-4.86
							v1.27c0,0.83,0.09,1.14,0.66,1.14h1.75c0.53,0,1.62-0.04,2.15-0.22c0.09,0.92,0.13,2.06,0.26,2.98
							c-0.53,0.18-1.49,0.22-2.32,0.22h-2.59c-3.02,0-3.59-1.31-3.59-4.12v-1.27H856.53z M847.46,220.73
							c1.93-1.71,3.94-4.73,5.08-7.67l5.04,1.31c-1.09,2.98-3.11,6.26-5.21,8.32L847.46,220.73z M884.7,207.55
							c0.17,0,0.35-0.04,0.48-0.22c0.13-0.18,0.22-0.53,0.26-1.36c0.09-0.83,0.13-2.63,0.13-4.86c0.83,0.7,2.1,1.36,3.2,1.75
							c-0.04,2.19-0.22,4.91-0.48,5.96c-0.22,1.01-0.66,1.71-1.23,2.19c-0.57,0.48-1.49,0.66-2.32,0.66h-1.97
							c-1.01,0-2.06-0.31-2.8-1.05c-0.66-0.79-0.96-1.66-0.96-4.91v-3.29l-1.75,3.5c-0.66-0.61-1.58-1.36-2.58-2.19
							c-1.09,3.59-2.89,6.53-5.61,8.85c-0.39-0.66-1.09-1.53-1.84-2.32v0.09c-6.79,0.7-13.84,1.4-18.97,1.93l-0.35-4.25
							c2.1-0.13,4.78-0.35,7.67-0.57v-2.67h-6.44v-3.64h6.44v-2.37h4.6v2.37h5.96v3.64h-5.96v2.32l7.01-0.61v1.4
							c1.8-1.93,2.85-4.29,3.59-7.05c-1.18-0.92-2.41-1.8-3.46-2.5l2.15-3.94l2.15,1.49c0.13-1.27,0.26-2.54,0.31-3.9h-3.68v-4.6
							h3.81c0.04-1.8,0.09-3.64,0.09-5.65h4.69c-0.04,1.97-0.04,3.81-0.09,5.65h6.96v18.22c0,0.96,0,1.53,0.09,1.71
							c0.09,0.18,0.22,0.22,0.39,0.22H884.7z M864.98,214.08c0.57,2.5,1.01,5.69,1.05,7.62l-5.21,0.66c0-1.97-0.26-5.26-0.7-7.8
							L864.98,214.08z M873.79,213.77c1.01,2.37,2.02,5.52,2.37,7.54l-5.21,1.01c-0.26-2.02-1.14-5.3-2.06-7.8L873.79,213.77z
							 M876.5,192c-0.13,2.45-0.35,4.69-0.66,6.79c1.18,0.83,2.28,1.62,3.15,2.28V192H876.5z M882.59,212.94
							c1.88,2.45,4.25,5.83,5.39,8.15l-5.39,1.66c-0.92-2.15-3.11-5.74-4.99-8.32L882.59,212.94z"/>
						<path class="st10" d="M901.12,201.85c0.96-2.93,1.84-7.8,2.19-11.43l3.94,0.57c-0.26,3.77-1.1,8.94-2.06,12.31L901.12,201.85z
							 M942.17,195.63v3.72h-26.81v-3.68l-1.01,0.57c-0.35-1.27-1.01-3.02-1.75-4.69v31.06h-4.78v-40.87h4.78v6.88l2.28-1.05
							c1.05,2.19,2.45,5.08,3.02,6.79l-2.41,1.27H926v-1.88h-8.1v-3.5h8.1v-1.75h-9.64v-3.72H926v-2.98h5.17v2.98h9.64v3.72h-9.64
							v1.75h8.28v3.5h-8.28v1.88H942.17z M939.85,217.75c0,2.28-0.44,3.5-2.06,4.21c-1.49,0.75-3.68,0.75-6.7,0.75
							c-0.17-1.27-0.83-3.15-1.4-4.42c1.8,0.13,3.86,0.09,4.42,0.09c0.61,0,0.79-0.18,0.79-0.7v-1.49h-13.01
							c-0.57,2.54-1.58,4.99-3.2,6.92c-0.7-0.96-2.76-2.8-3.72-3.46c2.5-3.07,2.72-7.27,2.72-10.69v-7.93h22.17V217.75z
							 M934.9,212.59v-2.02h-12.4c0,0.66-0.04,1.31-0.09,2.02H934.9z M922.54,204.66v2.23h12.35v-2.23H922.54z"/>
						<path class="st10" d="M969.06,211.27h-7.23v3.9h-4.51V185.6h11.74V211.27z M961.83,190.38v16.12h2.8v-16.12H961.83z
							 M996.66,207.02v3.72h-26.81v-3.72h5.65c-0.31-0.96-0.79-2.06-1.31-2.98l1.53-0.39h-3.24v-8.37h21.03v8.37h-2.15l0.26,0.04
							c-0.7,1.31-1.36,2.41-1.93,3.33H996.66z M980.36,188.54h-10.25v-3.64h10.25v-3.11h5.21v3.11h10.29v3.64h-10.29v1.8h8.98v3.55
							h-23.13v-3.55h8.94V188.54z M972.04,212.1h22.08v10.47h-5.17v-0.96h-12v1.14h-4.91V212.1z M976.95,215.56v2.54h12v-2.54
							H976.95z M977.25,200.49h11.21v-2.02h-11.21V200.49z M978.57,203.65c0.61,1.05,1.18,2.23,1.45,3.11l-1.01,0.26h6.92l-0.7-0.13
							c0.48-1.01,1.05-2.19,1.45-3.24H978.57z"/>
						<path class="st10" d="M1040.55,183.15c-0.18,0.44-0.35,0.96-0.53,1.45c2.54,4.82,6.92,9.51,11.52,12
							c-1.23,1.01-2.85,2.94-3.72,4.29c-1.01-0.7-2.01-1.49-2.98-2.37v2.1h-14.41v-1.84c-1.01,0.92-2.06,1.75-3.2,2.54
							c-0.61-0.92-1.84-2.37-2.94-3.33v13.27h-7.93v3.9h-4.73V185.6h12.66v11.35c5.26-3.59,9.38-9.33,11.43-15.25L1040.55,183.15z
							 M1019.52,190.38h-3.15v16.12h3.15V190.38z M1027.94,204.17h19.01v18.57h-5.34v-2.06h-8.63v2.1h-5.04V204.17z M1032.97,208.77
							v7.32h8.63v-7.32H1032.97z M1042.3,195.9c-1.71-1.93-3.24-4.16-4.56-6.48c-1.27,2.32-2.8,4.51-4.51,6.48H1042.3z"/>
					</g>
					<g>
						<path class="st10" d="M1193.13,217.4c1.49,0,1.75-0.75,1.97-5.83c1.1,0.83,3.42,1.71,4.78,2.06
							c-0.57,6.92-1.93,8.72-6.26,8.72h-5.78c-5.21,0-6.44-1.58-6.44-6.48v-7.01h-5.3c-0.92,6.97-3.5,11.57-14.33,14.02
							c-0.48-1.4-1.88-3.55-2.89-4.64c8.98-1.66,10.86-4.6,11.61-9.38h-5.34v-25.71h28.65v25.71h-7.14v6.97
							c0,1.4,0.26,1.58,1.93,1.58H1193.13z M1170.18,190.42h18.31v-2.72h-18.31V190.42z M1170.18,197.34h18.31v-2.72h-18.31V197.34z
							 M1170.18,204.31h18.31v-2.72h-18.31V204.31z"/>
						<path class="st10" d="M1249.6,211.84c-1.05,2.06-2.1,4.12-2.98,5.78h6.97v4.16h-24.88v-4.16h6.61
							c-0.31-1.58-1.14-3.77-2.1-5.52l4.07-1.1h-5.13v-10.38c-0.44,0.39-0.92,0.74-1.4,1.1c-0.7-1.01-2.06-2.67-3.07-3.46
							c1.58-1.01,2.98-2.45,4.21-4.16c-1.01-0.83-2.32-1.75-3.46-2.41v1.45h-15.2v-4.12h6.97c-0.75-1.67-1.93-3.86-2.94-5.52
							l3.5-2.1c1.27,1.75,2.72,4.21,3.42,5.74l-2.67,1.88h6.92v2.41l2.58-3.11c1.01,0.53,2.15,1.18,3.15,1.84
							c0.39-0.92,0.79-1.88,1.09-2.89h-5.26v-4.07h6.88l0.88-0.18l3.02,0.96c-0.66,3.68-1.8,6.97-3.33,9.81h7.45
							c-1.71-3.24-2.98-7.01-3.9-11.08l4.25-0.79c0.22,0.96,0.48,1.88,0.79,2.85c0.88-0.79,1.71-1.62,2.32-2.28l3.02,2.85
							c-1.27,1.1-2.76,2.23-3.94,3.11c0.26,0.57,0.48,1.14,0.79,1.67c1.09-0.79,2.19-1.67,2.89-2.37l2.89,2.85
							c-1.27,0.96-2.58,1.84-3.85,2.58c1.31,1.75,2.8,3.15,4.6,4.21c-1.18,0.88-2.72,2.63-3.5,3.81c-0.44-0.31-0.88-0.66-1.31-1.01
							v10.82h-4.07L1249.6,211.84z M1227.26,220.3h-8.46v1.84h-3.94v-15.11h12.4V220.3z M1227.08,199.05h-12.13v-3.94h12.13V199.05z
							 M1214.95,200.98h12.13v3.94h-12.13V200.98z M1218.8,211.18v4.91h4.42v-4.91H1218.8z M1235.8,196.46
							c-0.88,1.27-1.8,2.41-2.85,3.42h16.65c-1.18-1.05-2.19-2.28-3.15-3.64v1.67h-10.65V196.46z M1236.54,207.07h8.76v-3.29h-8.76
							V207.07z M1237.64,211.01c1.09,1.84,2.15,4.21,2.37,5.78l-2.89,0.83h4.91c0.83-1.93,1.84-4.56,2.37-6.61H1237.64z"/>
						<path class="st10" d="M1305.58,192.3c-5.52,8.19-14.59,16.82-23.39,22.6c2.72,1.66,6.4,1.97,11,1.97
							c4.47,0,11.17-0.44,15.33-1.05c-0.53,1.45-1.4,4.16-1.49,5.56c-3.11,0.22-9.73,0.48-14.02,0.48c-5.39,0-8.89-0.57-11.87-2.41
							c-1.88-1.1-3.33-2.58-4.29-2.58c-1.36,0-3.33,2.94-5.12,5.74l-3.77-4.91c3.15-3.37,6.62-5.7,9.02-5.7h0.26
							c7.18-4.29,14.68-11.04,19.36-17h-26.42v-5.13h17.08c-1.05-1.88-2.67-4.29-3.94-6.13l4.69-2.5c1.62,2.19,3.9,5.21,4.91,7.1
							l-2.67,1.53h10.29l1.01-0.26L1305.58,192.3z"/>
						<path class="st10" d="M1361.13,196.2c-1.8,7.01-4.82,12.62-8.81,16.95c3.07,2.19,6.66,3.9,10.69,4.99
							c-1.14,1.05-2.67,3.24-3.46,4.64c-4.21-1.4-7.84-3.5-11-6.09c-3.24,2.58-6.88,4.6-10.82,6.05c-0.66-1.27-2.28-3.46-3.29-4.29
							c3.85-1.27,7.4-3.02,10.47-5.3c-1.75-2.06-3.37-4.34-4.73-6.83c-0.88,0.92-1.8,1.8-2.76,2.58c-0.88-1.1-2.5-2.8-3.59-3.64
							c4.56-3.46,8.37-9.33,10.25-14.28h-10.73l3.77,1.14c-1.05,2.45-2.32,4.95-3.81,7.27v23.31h-5.13v-16.43
							c-1.1,1.23-2.19,2.32-3.24,3.33c-0.79-1.05-2.72-3.15-3.81-4.07c4.34-3.42,8.37-8.85,10.73-14.54h-9.02v-4.86h17.22
							c-0.48-1.05-1.01-2.19-1.53-3.07l4.86-1.66c0.83,1.4,1.88,3.24,2.58,4.73h15.81v4.86h-15.9l3.55,0.96
							c-0.39,0.96-0.88,1.93-1.31,2.89h8.81l0.88-0.17L1361.13,196.2z M1345.53,199.4c-0.7,1.14-1.45,2.23-2.23,3.33
							c1.31,2.67,3.11,5.08,5.21,7.23c2.76-2.89,4.95-6.35,6.4-10.56H1345.53z M1348.9,206.8c-0.7-1.18-2.54-3.07-4.07-4.38
							l3.11-2.41c1.49,1.14,3.37,2.85,4.29,4.03L1348.9,206.8z"/>
					</g>
				</g>
			</g>
		</g>
		<line class="st12" x1="472.46" y1="245.54" x2="1408.8" y2="245.54"/>
		<line class="st12" x1="472.46" y1="160.4" x2="1408.8" y2="160.4"/>
	</g>
	<g>
		<g>
			<g>
				<g>
					<defs>
						<path id="SVGID_5_" d="M1298.6,321.24h-81.24v360.8h58.89V577.46h22.35c37.73,0,68.42-30.47,68.42-67.92V389.17
							C1367.02,351.71,1336.33,321.24,1298.6,321.24z M1308.13,504.6c0,11.02-5.07,15.94-16.43,15.94h-15.44V378.16h15.44
							c11.36,0,16.43,4.92,16.43,15.94V504.6z"/>
					</defs>
					<clipPath id="SVGID_6_">
						<use xlink:href="#SVGID_5_"  style="overflow:visible;"/>
					</clipPath>
				</g>
			</g>
			<g>
				<g>
					<defs>
						<path id="XMLID_55_" d="M717,318.28h-18.75c-37.45,0-67.93,30.47-67.93,67.93v230.87c0,18.22,7.05,35.29,19.84,48.09
							c12.79,12.79,29.87,19.84,48.09,19.84H717c37.45,0,67.93-30.47,67.93-67.93V386.21c0-17.98-7.11-34.99-20.02-47.9
							C751.99,325.39,734.97,318.28,717,318.28z M726.03,617.08c0,5.76-5.25,11.01-11,11.01h-14.8c-5.97,0-11.01-5.04-11.01-11.01
							V386.21c0-5.97,5.04-11,11.01-11h14.8c5.76,0,11,5.25,11,11V617.08z"/>
					</defs>
					<clipPath id="XMLID_10_">
						<use xlink:href="#XMLID_55_"  style="overflow:visible;"/>
					</clipPath>
				</g>
			</g>
			<g>
				<g>
					<defs>
						<path id="SVGID_7_" d="M1089.94,318.28h-18.75c-37.45,0-67.93,30.47-67.93,67.93v230.87c0,18.22,7.05,35.29,19.84,48.09
							c12.79,12.79,29.87,19.84,48.09,19.84h18.75c37.45,0,67.93-30.47,67.93-67.93V386.21c0-17.98-7.11-34.99-20.02-47.9
							C1124.93,325.39,1107.91,318.28,1089.94,318.28z M1098.97,617.08c0,5.76-5.25,11-11,11h-14.8c-5.97,0-11.01-5.04-11.01-11
							V386.21c0-5.97,5.04-11,11.01-11h14.8c5.76,0,11,5.25,11,11V617.08z"/>
					</defs>
					<clipPath id="SVGID_8_">
						<use xlink:href="#SVGID_7_"  style="overflow:visible;"/>
					</clipPath>
				</g>
			</g>
			<g>
				<g>
					<defs>
						<polygon id="XMLID_54_" points="225.81,378.16 313.64,378.16 225.81,629.09 225.81,682.04 375.48,682.04 375.48,625.12 
							287.65,625.12 375.48,374.19 375.48,321.24 225.81,321.24 						"/>
					</defs>
					<clipPath id="XMLID_11_">
						<use xlink:href="#XMLID_54_"  style="overflow:visible;"/>
					</clipPath>
				</g>
			</g>
			<g>
				<g>
					<defs>
						<path id="XMLID_53_" d="M505.86,318.28h-18.75c-37.45,0-67.93,30.47-67.93,67.93v230.87c0,18.22,7.05,35.29,19.84,48.09
							C451.82,677.96,468.9,685,487.12,685h18.75c37.45,0,67.93-30.47,67.93-67.93V386.21c0-17.98-7.11-34.99-20.02-47.9
							C540.85,325.39,523.84,318.28,505.86,318.28z M514.89,617.08c0,5.76-5.25,11-11,11h-14.8c-5.97,0-11-5.04-11-11V386.21
							c0-5.97,5.04-11,11-11h14.8c5.76,0,11,5.25,11,11V617.08z"/>
					</defs>
					<clipPath id="XMLID_12_">
						<use xlink:href="#XMLID_53_"  style="overflow:visible;"/>
					</clipPath>
				</g>
			</g>
			<g>
				<g>
					<defs>
						<polygon id="SVGID_9_" points="821.73,378.16 864.64,378.16 864.64,682.04 923.54,682.04 923.54,378.16 966.46,378.16 
							966.46,321.24 821.73,321.24 						"/>
					</defs>
					<clipPath id="SVGID_10_">
						<use xlink:href="#SVGID_9_"  style="overflow:visible;"/>
					</clipPath>
				</g>
			</g>
			<g>
				<g>
					<defs>
						<path id="SVGID_11_" d="M1651.62,321.24h-88.42l-42.57,360.8h60.08l4.93-56.73h43.07l5.43,56.73h60.04L1651.62,321.24z
							 M1591.46,568.39l15.7-162.65l15.7,162.65H1591.46z"/>
					</defs>
					<clipPath id="SVGID_12_">
						<use xlink:href="#SVGID_11_"  style="overflow:visible;"/>
					</clipPath>
				</g>
			</g>
		</g>
		<g>
			<g>
				<path class="st10" d="M1298.6,321.24h-81.24v360.8h58.89V577.46h22.35c37.73,0,68.42-30.47,68.42-67.92V389.17
					C1367.02,351.71,1336.33,321.24,1298.6,321.24z M1308.13,504.6c0,11.02-5.07,15.94-16.43,15.94h-15.44V378.16h15.44
					c11.36,0,16.43,4.92,16.43,15.94V504.6z"/>
				<g>
					<defs>
						<path id="SVGID_13_" d="M1298.6,321.24h-81.24v360.8h58.89V577.46h22.35c37.73,0,68.42-30.47,68.42-67.92V389.17
							C1367.02,351.71,1336.33,321.24,1298.6,321.24z M1308.13,504.6c0,11.02-5.07,15.94-16.43,15.94h-15.44V378.16h15.44
							c11.36,0,16.43,4.92,16.43,15.94V504.6z"/>
					</defs>
					<clipPath id="SVGID_14_">
						<use xlink:href="#SVGID_13_"  style="overflow:visible;"/>
					</clipPath>
					<g class="st13">
						<rect x="1217.36" y="514.82" class="st8" width="192.99" height="75.17"/>
						<rect x="1217.36" y="321.24" class="st7" width="158.69" height="58.89"/>
						<path class="st1" d="M1234.94,664.46V338.82h63.66c28.03,0,50.84,22.58,50.84,50.35v120.37c0,27.76-22.81,50.34-50.84,50.34
							h-39.93v104.58H1234.94z M1258.67,538.12h33.02c20.98,0,34.01-12.84,34.01-33.52V394.1c0-20.67-13.03-33.52-34.01-33.52
							h-33.02V538.12z"/>
						<rect x="1217.36" y="380.14" class="st1" width="58.89" height="58.89"/>
						<rect x="1216.74" y="439.03" class="st6" width="59.51" height="241.96"/>
						<line class="st14" x1="1231.02" y1="439.03" x2="1231.02" y2="708.39"/>
						<line class="st14" x1="1246.19" y1="439.03" x2="1246.19" y2="708.39"/>
						<line class="st14" x1="1261.36" y1="439.03" x2="1261.36" y2="708.39"/>
						
							<ellipse transform="matrix(0.1602 -0.9871 0.9871 0.1602 642.5353 1574.3759)" class="st5" cx="1246.5" cy="409.58" rx="29.45" ry="29.45"/>
						
							<ellipse transform="matrix(0.7071 -0.7071 0.7071 0.7071 75.4714 1001.3701)" class="st4" cx="1246.5" cy="409.58" rx="14.86" ry="14.86"/>
					</g>
				</g>
			</g>
			<g>
				<path id="XMLID_52_" class="st10" d="M717,318.28h-18.75c-37.45,0-67.93,30.47-67.93,67.93v230.87
					c0,18.22,7.05,35.29,19.84,48.09c12.79,12.79,29.87,19.84,48.09,19.84H717c37.45,0,67.93-30.47,67.93-67.93V386.21
					c0-17.98-7.11-34.99-20.02-47.9C751.99,325.39,734.97,318.28,717,318.28z M726.03,617.08c0,5.76-5.25,11.01-11,11.01h-14.8
					c-5.97,0-11.01-5.04-11.01-11.01V386.21c0-5.97,5.04-11,11.01-11h14.8c5.76,0,11,5.25,11,11V617.08z"/>
				<g>
					<defs>
						<path id="XMLID_51_" d="M717,318.28h-18.75c-37.45,0-67.93,30.47-67.93,67.93v230.87c0,18.22,7.05,35.29,19.84,48.09
							c12.79,12.79,29.87,19.84,48.09,19.84H717c37.45,0,67.93-30.47,67.93-67.93V386.21c0-17.98-7.11-34.99-20.02-47.9
							C751.99,325.39,734.97,318.28,717,318.28z M726.03,617.08c0,5.76-5.25,11.01-11,11.01h-14.8c-5.97,0-11.01-5.04-11.01-11.01
							V386.21c0-5.97,5.04-11,11.01-11h14.8c5.76,0,11,5.25,11,11V617.08z"/>
					</defs>
					<clipPath id="XMLID_13_">
						<use xlink:href="#XMLID_51_"  style="overflow:visible;"/>
					</clipPath>
					<rect x="689.22" y="265.39" class="st15" width="172.08" height="480.49"/>
					<path class="st16" d="M698.25,665c-12.87,0-24.93-4.96-33.95-13.98c-9.02-9.02-13.98-21.07-13.98-33.95V386.21
						c0-26.43,21.5-47.93,47.93-47.93H717c12.64,0,24.63,5.03,33.76,14.17c9.14,9.14,14.17,21.12,14.17,33.76v230.87
						c0,26.43-21.5,47.93-47.93,47.93H698.25z M700.22,355.2c-17.1,0-31,13.91-31,31v230.87c0,17.1,13.91,31,31,31h14.8
						c16.81,0,31-14.2,31-31V386.21c0-16.81-14.2-31-31-31H700.22z"/>
					<rect x="580.66" y="294.65" class="st17" width="109.41" height="498.72"/>
					<g class="st18">
						<g>
							<rect x="615.23" y="467.46" class="st1" width="53.51" height="19.9"/>
							<rect x="615.23" y="500.25" class="st1" width="53.51" height="19.9"/>
						</g>
						<g>
							<rect x="615.23" y="555.5" class="st1" width="53.51" height="19.9"/>
							<rect x="615.23" y="588.29" class="st1" width="53.51" height="19.9"/>
							<rect x="615.23" y="621.09" class="st1" width="53.51" height="19.9"/>
						</g>
						<g>
							<rect x="615.23" y="346.62" class="st1" width="53.51" height="19.9"/>
							<rect x="615.23" y="379.41" class="st1" width="53.51" height="19.9"/>
							<rect x="615.23" y="412.2" class="st1" width="53.51" height="19.9"/>
						</g>
					</g>
				</g>
			</g>
			<g>
				<path class="st10" d="M1089.94,318.28h-18.75c-37.45,0-67.93,30.47-67.93,67.93v230.87c0,18.22,7.05,35.29,19.84,48.09
					c12.79,12.79,29.87,19.84,48.09,19.84h18.75c37.45,0,67.93-30.47,67.93-67.93V386.21c0-17.98-7.11-34.99-20.02-47.9
					C1124.93,325.39,1107.91,318.28,1089.94,318.28z M1098.97,617.08c0,5.76-5.25,11-11,11h-14.8c-5.97,0-11.01-5.04-11.01-11
					V386.21c0-5.97,5.04-11,11.01-11h14.8c5.76,0,11,5.25,11,11V617.08z"/>
				<g>
					<defs>
						<path id="SVGID_15_" d="M1089.94,318.28h-18.75c-37.45,0-67.93,30.47-67.93,67.93v230.87c0,18.22,7.05,35.29,19.84,48.09
							c12.79,12.79,29.87,19.84,48.09,19.84h18.75c37.45,0,67.93-30.47,67.93-67.93V386.21c0-17.98-7.11-34.99-20.02-47.9
							C1124.93,325.39,1107.91,318.28,1089.94,318.28z M1098.97,617.08c0,5.76-5.25,11-11,11h-14.8c-5.97,0-11.01-5.04-11.01-11
							V386.21c0-5.97,5.04-11,11.01-11h14.8c5.76,0,11,5.25,11,11V617.08z"/>
					</defs>
					<clipPath id="SVGID_16_">
						<use xlink:href="#SVGID_15_"  style="overflow:visible;"/>
					</clipPath>
					
						<rect x="1074.52" y="204.99" transform="matrix(0.4935 -0.8698 0.8698 0.4935 239.3871 1168.2866)" class="st19" width="96.42" height="347.26"/>
					
						<rect x="1074.52" y="361.41" transform="matrix(0.4935 -0.8698 0.8698 0.4935 103.3374 1247.5194)" class="st20" width="96.42" height="347.26"/>
					
						<rect x="1074.52" y="519.98" transform="matrix(0.4935 -0.8698 0.8698 0.4935 -34.583 1327.8408)" class="st21" width="96.42" height="347.26"/>
					<line class="st22" x1="955.07" y1="350.21" x2="1220.31" y2="350.21"/>
					<line class="st22" x1="955.07" y1="389.94" x2="1220.31" y2="389.94"/>
					<line class="st22" x1="955.07" y1="429.67" x2="1220.31" y2="429.67"/>
					<line class="st22" x1="955.07" y1="469.41" x2="1220.31" y2="469.41"/>
				</g>
				
					<rect x="1022.03" y="549.97" transform="matrix(0.7071 -0.7071 0.7071 0.7071 -93.5667 893.4832)" class="st1" width="19.44" height="19.44"/>
			</g>
			<g>
				<g>
					<defs>
						<polygon id="XMLID_50_" points="225.81,378.16 313.64,378.16 225.81,629.09 225.81,682.04 375.48,682.04 375.48,625.12 
							287.65,625.12 375.48,374.19 375.48,321.24 225.81,321.24 						"/>
					</defs>
					<use xlink:href="#XMLID_50_"  style="overflow:visible;"/>
					<clipPath id="XMLID_14_">
						<use xlink:href="#XMLID_50_"  style="overflow:visible;"/>
					</clipPath>
					<g class="st23">
						<g>
							
								<rect x="291.91" y="144.15" transform="matrix(0.4935 -0.8698 0.8698 0.4935 -124.537 453.6999)" class="st4" width="70.69" height="379.25"/>
							<g>
								
									<rect x="169.07" y="251.79" transform="matrix(0.4935 -0.8698 0.8698 0.4935 -126.1715 311.2831)" class="st5" width="70.2" height="24.35"/>
								
									<rect x="218.3" y="279.72" transform="matrix(0.4935 -0.8698 0.8698 0.4935 -125.5284 368.25)" class="st5" width="70.2" height="24.35"/>
								
									<rect x="267.53" y="307.65" transform="matrix(0.4935 -0.8698 0.8698 0.4935 -124.8855 425.216)" class="st5" width="70.2" height="24.35"/>
								
									<rect x="316.76" y="335.58" transform="matrix(0.4935 -0.8698 0.8698 0.4935 -124.2424 482.1828)" class="st5" width="70.2" height="24.35"/>
								
									<rect x="365.99" y="363.51" transform="matrix(0.4935 -0.8698 0.8698 0.4935 -123.5991 539.1506)" class="st5" width="70.2" height="24.35"/>
								
									<rect x="415.22" y="391.45" transform="matrix(0.4935 -0.8698 0.8698 0.4935 -122.956 596.1176)" class="st5" width="70.2" height="24.35"/>
							</g>
						</g>
						
							<rect x="72.41" y="487.35" transform="matrix(0.4935 -0.8698 0.8698 0.4935 -340.636 492.2574)" class="st7" width="359.8" height="102.45"/>
						
							<rect x="181.02" y="526.56" transform="matrix(0.4935 -0.8698 0.8698 0.4935 -339.2172 617.9341)" class="st11" width="359.8" height="147.29"/>
						
							<rect x="148.74" y="268.62" transform="matrix(0.4935 -0.8698 0.8698 0.4935 -209.6673 351.5025)" class="st6" width="96.42" height="174.28"/>
						
							<ellipse transform="matrix(0.7071 -0.7071 0.7071 0.7071 -252.9686 382.2889)" class="st8" cx="334.98" cy="496.5" rx="102.6" ry="102.6"/>
						
							<ellipse transform="matrix(0.8796 -0.4758 0.4758 0.8796 -195.8775 219.1618)" class="st10" cx="334.98" cy="496.5" rx="48" ry="48"/>
						
							<rect x="27.42" y="395.53" transform="matrix(0.4935 -0.8698 0.8698 0.4935 -356.4432 353.222)" class="st10" width="195.23" height="174.22"/>
						<pattern  id="SVGID_17_" xlink:href="#Unnamed_Pattern_2" patternTransform="matrix(1 0 0 1 3774.2034 -1034.0809)">
						</pattern>
						<polygon class="st24" points="152.63,610.52 1.19,524.6 97.53,354.79 248.97,440.72 						"/>
					</g>
				</g>
			</g>
			<g>
				<g>
					<defs>
						<path id="XMLID_49_" d="M505.86,318.28h-18.75c-37.45,0-67.93,30.47-67.93,67.93v230.87c0,18.22,7.05,35.29,19.84,48.09
							C451.82,677.96,468.9,685,487.12,685h18.75c37.45,0,67.93-30.47,67.93-67.93V386.21c0-17.98-7.11-34.99-20.02-47.9
							C540.85,325.39,523.84,318.28,505.86,318.28z M514.89,617.08c0,5.76-5.25,11-11,11h-14.8c-5.97,0-11-5.04-11-11V386.21
							c0-5.97,5.04-11,11-11h14.8c5.76,0,11,5.25,11,11V617.08z"/>
					</defs>
					<use xlink:href="#XMLID_49_"  style="overflow:visible;fill:#FFFFFF;"/>
					<clipPath id="XMLID_15_">
						<use xlink:href="#XMLID_49_"  style="overflow:visible;"/>
					</clipPath>
					<g class="st25">
						<path class="st26" d="M490.77-8.83c0,18.03-81.68,35.94-81.68,53.74c0,18.04,81.68,35.96,81.68,53.74
							c0,18.06-81.68,35.98-81.68,53.74c0,18.08,81.68,35.99,81.68,53.74c0,18.09-81.68,36.01-81.68,53.73
							c0,18.12,81.68,36.04,81.68,53.74c0,18.14-81.68,36.06-81.68,53.74c0,18.17,81.68,36.09,81.68,53.74
							c0,18.21-81.68,36.13-81.68,53.74c0,18.25,81.68,36.17,81.68,53.74c0,18.31-81.68,36.22-81.68,53.73
							c0,18.37,81.68,36.29,81.68,53.73c0,18.46-81.68,36.38-81.68,53.73c0,18.58,81.68,36.5,81.68,53.73
							c0,18.75-81.68,36.68-81.68,53.73c0,19.02,81.68,36.96,81.68,53.73c0,19.52-81.68,37.47-81.68,53.73
							c0,20.72,81.68,38.71,81.68,53.73c0,34.84-81.68,26.86-81.68,53.72"/>
					</g>
					<rect x="492.57" y="276.5" class="st27" width="187.87" height="493.53"/>
					<rect x="492.57" y="276.5" class="st28" width="187.87" height="231.14"/>
					<rect x="309.19" y="586.59" class="st29" width="187.87" height="109.71"/>
					<line class="st30" x1="530.64" y1="507.64" x2="530.64" y2="1337.82"/>
					<line class="st30" x1="558" y1="507.64" x2="558" y2="1337.82"/>
					<circle class="st31" cx="544.55" cy="399.62" r="18.22"/>
					<circle class="st31" cx="544.55" cy="453.86" r="18.22"/>
					
						<ellipse transform="matrix(0.9239 -0.3827 0.3827 0.9239 -152.9872 247.0676)" class="st32" cx="544.55" cy="508.09" rx="18.22" ry="18.22"/>
				</g>
			</g>
			<g>
				<polygon class="st10" points="821.73,378.16 864.64,378.16 864.64,682.04 923.54,682.04 923.54,378.16 966.46,378.16 
					966.46,321.24 821.73,321.24 				"/>
				<g>
					<defs>
						<polygon id="SVGID_18_" points="821.73,378.16 864.64,378.16 864.64,682.04 923.54,682.04 923.54,378.16 966.46,378.16 
							966.46,321.24 821.73,321.24 						"/>
					</defs>
					<clipPath id="SVGID_19_">
						<use xlink:href="#SVGID_18_"  style="overflow:visible;"/>
					</clipPath>
					<rect x="763.61" y="252.14" class="st33" width="298.55" height="126.35"/>
					<polygon class="st34" points="821.73,349.91 821.73,321.31 846.49,335.61 871.25,349.91 846.49,364.2 821.73,378.5 					"/>
					<polygon class="st35" points="869.33,349.91 869.33,321.31 894.09,335.61 918.85,349.91 894.09,364.2 869.33,378.5 					"/>
					<polygon class="st36" points="916.94,349.91 916.94,321.31 941.7,335.61 966.46,349.91 941.7,364.2 916.94,378.5 					"/>
					<rect x="864.64" y="501.64" class="st37" width="75.98" height="180.4"/>
					<rect x="885.17" y="378.16" class="st38" width="17.85" height="303.88"/>
					<rect x="864.64" y="378.16" class="st39" width="59.48" height="47.07"/>
				</g>
			</g>
			<g>
				<rect x="1419.61" y="321.24" class="st10" width="58.89" height="360.8"/>
				<circle class="st8" cx="1449.06" cy="350.69" r="29.45"/>
				<circle class="st4" cx="1449.06" cy="350.69" r="13.78"/>
				
					<ellipse transform="matrix(0.7071 -0.7071 0.7071 0.7071 134.8003 1144.6028)" class="st8" cx="1449.06" cy="409.58" rx="29.45" ry="29.45"/>
				<circle class="st4" cx="1449.06" cy="409.58" r="13.78"/>
				
					<ellipse transform="matrix(0.2298 -0.9732 0.9732 0.2298 660.1879 1771.1367)" class="st8" cx="1449.06" cy="468.48" rx="29.45" ry="29.45"/>
				
					<ellipse transform="matrix(0.1602 -0.9871 0.9871 0.1602 754.5169 1823.7817)" class="st4" cx="1449.06" cy="468.48" rx="13.78" ry="13.78"/>
				<rect x="1419.61" y="497.92" class="st11" width="58.89" height="184.12"/>
				<rect x="1442.23" y="497.92" class="st5" width="13.65" height="184.12"/>
			</g>
			<g>
				<path class="st10" d="M1651.62,321.24h-88.42l-42.57,360.8h60.08l4.93-56.73h43.07l5.43,56.73h60.04L1651.62,321.24z
					 M1591.46,568.39l15.7-162.65l15.7,162.65H1591.46z"/>
				<g>
					<defs>
						<path id="SVGID_20_" d="M1651.62,321.24h-88.42l-42.57,360.8h60.08l4.93-56.73h43.07l5.43,56.73h60.04L1651.62,321.24z
							 M1591.46,568.39l15.7-162.65l15.7,162.65H1591.46z"/>
					</defs>
					<clipPath id="SVGID_21_">
						<use xlink:href="#SVGID_20_"  style="overflow:visible;"/>
					</clipPath>
					
						<ellipse transform="matrix(0.9239 -0.3827 0.3827 0.9239 -23.7811 644.1556)" class="st40" cx="1607.31" cy="381.86" rx="17.69" ry="17.69"/>
					
						<ellipse transform="matrix(0.9239 -0.3827 0.3827 0.9239 -19.4919 665.7189)" class="st40" cx="1663.65" cy="381.86" rx="17.69" ry="17.69"/>
					
						<ellipse transform="matrix(0.9239 -0.3827 0.3827 0.9239 -28.0703 622.5923)" class="st40" cx="1550.96" cy="381.86" rx="17.69" ry="17.69"/>
					<circle class="st40" cx="1699.38" cy="323.26" r="17.69"/>
					
						<ellipse transform="matrix(0.9239 -0.3827 0.3827 0.9239 -44.2911 636.1978)" class="st40" cx="1577.05" cy="429.43" rx="17.69" ry="17.69"/>
					
						<ellipse transform="matrix(0.2298 -0.9732 0.9732 0.2298 841.5571 1922.2168)" class="st40" cx="1635.19" cy="429.43" rx="17.69" ry="17.69"/>
					
						<ellipse transform="matrix(0.9239 -0.3827 0.3827 0.9239 -6.5617 628.6929)" class="st40" cx="1577.05" cy="330.84" rx="17.69" ry="17.69"/>
					
						<ellipse transform="matrix(0.2298 -0.9732 0.9732 0.2298 937.5115 1846.2767)" class="st40" cx="1635.19" cy="330.84" rx="17.69" ry="17.69"/>
					<circle class="st40" cx="1524.26" cy="413.5" r="17.69"/>
					<rect x="1326.55" y="439.03" class="st41" width="580.07" height="332.42"/>
					<rect x="1607.41" y="439.03" class="st42" width="580.07" height="332.42"/>
					<g class="st43">
						<path class="st44" d="M1531.52,680.04c1.29-12.15,39.08-8.13,40.37-20.28c1.29-12.15-36.5-16.16-35.21-28.31
							c1.29-12.15,39.08-8.13,40.37-20.28c1.29-12.15-36.5-16.17-35.2-28.31c1.29-12.15,39.08-8.14,40.37-20.29
							c1.29-12.15-36.5-16.17-35.2-28.32c1.29-12.15,39.08-8.14,40.37-20.29c1.29-12.15-36.5-16.17-35.2-28.32
							c1.29-12.15,39.08-8.14,40.37-20.29c1.29-12.15-36.5-16.17-35.2-28.32"/>
					</g>
					<line class="st45" x1="1387.07" y1="521.87" x2="1387.07" y2="1223.79"/>
					<polygon class="st46" points="1703.65,695.04 1665.51,439.03 1636.9,439.03 1668.95,690.7 					"/>
					<rect x="1449.06" y="568.39" class="st47" width="309.15" height="56.93"/>
					<line class="st48" x1="1958.37" y1="595.61" x2="1256.45" y2="595.61"/>
				</g>
			</g>
		</g>
		<g>
			<g>
				<g>
					<defs>
						<path id="SVGID_22_" d="M1298.6,321.24h-81.24v360.8h58.89V577.46h22.35c37.73,0,68.42-30.47,68.42-67.92V389.17
							C1367.02,351.71,1336.33,321.24,1298.6,321.24z M1308.13,504.6c0,11.02-5.07,15.94-16.43,15.94h-15.44V378.16h15.44
							c11.36,0,16.43,4.92,16.43,15.94V504.6z"/>
					</defs>
					<clipPath id="SVGID_23_">
						<use xlink:href="#SVGID_22_"  style="overflow:visible;"/>
					</clipPath>
				</g>
			</g>
			<g>
				<g>
					<defs>
						<path id="XMLID_47_" d="M717,318.28h-18.75c-37.45,0-67.93,30.47-67.93,67.93v230.87c0,18.22,7.05,35.29,19.84,48.09
							c12.79,12.79,29.87,19.84,48.09,19.84H717c37.45,0,67.93-30.47,67.93-67.93V386.21c0-17.98-7.11-34.99-20.02-47.9
							C751.99,325.39,734.97,318.28,717,318.28z M726.03,617.08c0,5.76-5.25,11.01-11,11.01h-14.8c-5.97,0-11.01-5.04-11.01-11.01
							V386.21c0-5.97,5.04-11,11.01-11h14.8c5.76,0,11,5.25,11,11V617.08z"/>
					</defs>
					<clipPath id="XMLID_16_">
						<use xlink:href="#XMLID_47_"  style="overflow:visible;"/>
					</clipPath>
				</g>
			</g>
			<g>
				<g>
					<defs>
						<path id="SVGID_24_" d="M1089.94,318.28h-18.75c-37.45,0-67.93,30.47-67.93,67.93v230.87c0,18.22,7.05,35.29,19.84,48.09
							c12.79,12.79,29.87,19.84,48.09,19.84h18.75c37.45,0,67.93-30.47,67.93-67.93V386.21c0-17.98-7.11-34.99-20.02-47.9
							C1124.93,325.39,1107.91,318.28,1089.94,318.28z M1098.97,617.08c0,5.76-5.25,11-11,11h-14.8c-5.97,0-11.01-5.04-11.01-11
							V386.21c0-5.97,5.04-11,11.01-11h14.8c5.76,0,11,5.25,11,11V617.08z"/>
					</defs>
					<clipPath id="SVGID_25_">
						<use xlink:href="#SVGID_24_"  style="overflow:visible;"/>
					</clipPath>
				</g>
			</g>
			<g>
				<g>
					<defs>
						<polygon id="XMLID_46_" points="225.81,378.16 313.64,378.16 225.81,629.09 225.81,682.04 375.48,682.04 375.48,625.12 
							287.65,625.12 375.48,374.19 375.48,321.24 225.81,321.24 						"/>
					</defs>
					<clipPath id="XMLID_17_">
						<use xlink:href="#XMLID_46_"  style="overflow:visible;"/>
					</clipPath>
				</g>
			</g>
			<g>
				<g>
					<defs>
						<path id="XMLID_29_" d="M505.86,318.28h-18.75c-37.45,0-67.93,30.47-67.93,67.93v230.87c0,18.22,7.05,35.29,19.84,48.09
							C451.82,677.96,468.9,685,487.12,685h18.75c37.45,0,67.93-30.47,67.93-67.93V386.21c0-17.98-7.11-34.99-20.02-47.9
							C540.85,325.39,523.84,318.28,505.86,318.28z M514.89,617.08c0,5.76-5.25,11-11,11h-14.8c-5.97,0-11-5.04-11-11V386.21
							c0-5.97,5.04-11,11-11h14.8c5.76,0,11,5.25,11,11V617.08z"/>
					</defs>
					<clipPath id="XMLID_18_">
						<use xlink:href="#XMLID_29_"  style="overflow:visible;"/>
					</clipPath>
				</g>
			</g>
			<g>
				<g>
					<defs>
						<polygon id="SVGID_26_" points="821.73,378.16 864.64,378.16 864.64,682.04 923.54,682.04 923.54,378.16 966.46,378.16 
							966.46,321.24 821.73,321.24 						"/>
					</defs>
					<clipPath id="SVGID_27_">
						<use xlink:href="#SVGID_26_"  style="overflow:visible;"/>
					</clipPath>
				</g>
			</g>
			<g>
				<g>
					<defs>
						<path id="SVGID_28_" d="M1651.62,321.24h-88.42l-42.57,360.8h60.08l4.93-56.73h43.07l5.43,56.73h60.04L1651.62,321.24z
							 M1591.46,568.39l15.7-162.65l15.7,162.65H1591.46z"/>
					</defs>
					<clipPath id="SVGID_29_">
						<use xlink:href="#SVGID_28_"  style="overflow:visible;"/>
					</clipPath>
				</g>
			</g>
		</g>
	</g>
	<g>
		<g>
			<path class="st10" d="M812.59,783.82c5.7,3.01,9.02,5.01,14.33,9.02l-4.62,7.01c-5.39-4.39-8.71-6.7-14.41-9.79L812.59,783.82z
				 M827.08,809.94c-3.62,9.25-7.71,17.88-11.4,23.81l-7.47-5.93c0.85-0.77,1.77-1.85,2.77-3.39c3.47-5.01,6.16-10.63,9.4-19.34
				L827.08,809.94z M815.6,764.32c6.55,4.24,8.63,5.78,13.64,10.09l-5.01,6.63c-4.78-4.47-7.78-6.78-13.87-10.79L815.6,764.32z
				 M848.58,776.88c-7.71,0.85-9.25,1-15.87,1.39c-0.62-3.01-1.23-4.47-2.93-7.63c16.72-0.31,34.29-3.24,41.46-6.78l5.63,7.71
				c-1.31,0.39-1.31,0.39-3.78,1c-3.78,1-10.63,2.39-16.1,3.24v10.17h13.41c3.7,0,6.4-0.15,8.63-0.46v8.78
				c-2.23-0.31-4.93-0.46-8.55-0.46h-13.49v9.94h11.71c2.7,0,4.7-0.08,6.09-0.31c-0.23,1.77-0.31,4.16-0.31,6.93v16.57
				c0,3.01,0.15,5.86,0.39,7.94h-8.71v-3.85h-25.81v3.85h-8.48c0.15-2.08,0.31-5.01,0.31-8.01v-16.8c0-2.47-0.08-4.55-0.31-6.63
				c1.77,0.23,3.31,0.31,6.09,0.31h10.63v-9.94h-11.94c-3.24,0-6.01,0.15-8.48,0.46v-8.78c2.23,0.31,5.01,0.46,8.48,0.46h11.94
				V776.88z M840.33,823.2h25.81v-11.87h-25.81V823.2z"/>
			<path class="st10" d="M930.49,771.95c0-3.7-0.15-5.63-0.46-7.63h9.63c-0.31,2.23-0.46,4.08-0.46,7.63v16.88h16.49v-12.56
				c0-2.54-0.08-4.24-0.31-6.09h9.25c-0.31,2.31-0.39,3.85-0.39,6.7v15.33c0,2,0.08,3.7,0.23,4.93c-1.7-0.15-3.54-0.23-5.39-0.23
				H939.2v25.27h19.03V809.4c0-2.62-0.08-4.62-0.39-6.55h9.32c-0.23,2-0.39,4.24-0.39,7.32v16.64c0,3.62,0.15,5.62,0.46,7.71h-9.02
				v-4.01h-45.85v4.01h-9.02c0.31-2.31,0.46-4.62,0.46-7.71v-16.34c0-3.01-0.15-5.39-0.39-7.4h9.32c-0.31,1.85-0.39,3.54-0.39,6.63
				v12.48h18.11v-25.27H912c-2.08,0-3.7,0.08-5.55,0.23c0.15-1.7,0.23-3.16,0.23-4.93v-15.26c0-2.77-0.08-4.85-0.39-6.78h9.25
				c-0.23,1.7-0.31,3.54-0.31,6.16v12.48h15.26V771.95z"/>
			<path class="st10" d="M1006.86,825.97c0,3.31,0.08,5.86,0.39,8.94h-8.86c0.31-3.01,0.46-5.24,0.46-9.02v-22.96
				c0-2.7,0-2.93,0.23-8.55c-1.7,3.08-2.54,4.39-5.7,8.32c-1.08-3.7-1.93-5.93-3.54-9.17c5.09-5.55,8.71-11.64,11.71-19.8
				c1.62-4.47,2.39-7.17,2.85-10.63l8.48,2.93c-0.23,0.77-0.77,2.31-1.54,4.62c-1.54,4.78-2.47,7.01-4.47,11.33V825.97z
				 M1010.94,777.27c1.93,0.31,3.7,0.39,6.4,0.39h37.53c3.08,0,5.24-0.15,7.24-0.46v7.94c-2.08-0.23-4.32-0.39-7.24-0.39h-37.53
				c-2.39,0-4.47,0.08-6.4,0.39V777.27z M1022.89,834.98h-8.32c0.23-2,0.39-4.32,0.39-7.17v-10.86c0-2.47-0.08-4.78-0.31-6.63
				c1.62,0.15,3.7,0.23,6.32,0.23h29.2c3.01,0,4.85-0.08,6.55-0.23c-0.23,1.93-0.31,3.78-0.31,6.55v10.79
				c0,2.93,0.08,4.93,0.39,7.24h-8.48v-3.54h-25.43V834.98z M1056.41,795.84c-1.7-0.23-3.47-0.31-6.01-0.31h-29.51
				c-2.62,0-3.7,0.08-5.47,0.31v-7.32c1.62,0.23,2.77,0.31,5.47,0.31h29.44c2.54,0,4.24-0.08,6.09-0.31V795.84z M1056.41,806.7
				c-1.93-0.23-3.39-0.31-5.93-0.31h-29.59c-2.7,0-3.93,0.08-5.47,0.31v-7.32c1.62,0.23,2.85,0.31,5.47,0.31h29.51
				c2.54,0,4.24-0.08,6.01-0.31V806.7z M1056.41,773.8c-2.08-0.23-4.32-0.31-7.55-0.31h-25.97c-3.08,0-5.09,0.08-6.94,0.31v-7.4
				c2.23,0.31,4.39,0.46,7.63,0.46h24.66c3.7,0,6.09-0.15,8.17-0.46V773.8z M1048.32,824.12v-6.47h-25.43v6.47H1048.32z"/>
			<path class="st10" d="M1091.32,804.62c0-2,0-4.32,0.15-9.94c-2.77,4.78-3.31,5.55-5.39,8.01c-0.85-3.7-1.85-6.32-3.47-9.25
				c5.16-5.47,9.25-12.33,12.25-20.65c1.31-3.85,2.08-6.78,2.39-9.56l8.86,2.08c-2.39,7.78-4.16,12.25-6.78,17.65v42.61
				c0,4.24,0.08,6.47,0.39,9.25h-8.86c0.31-3.01,0.46-5.16,0.46-9.17V804.62z M1106.57,781.28c0-3.78-0.08-5.32-0.23-7.09
				c7.24-2.62,13.95-6.55,17.11-10.09l5.24,5.93c2.16,0.08,2.7,0.08,4.24,0.08h13.02c3.85,0,5.24-0.08,6.86-0.31
				c-0.23,2.16-0.31,3.85-0.31,7.01v40.07c0,3.08-0.85,5.09-2.54,6.24c-1.54,0.92-3.78,1.31-8.63,1.31c-0.46,0-1.23,0-2.93,0
				c-0.39-3.31-0.92-5.39-2.39-8.63c2.16,0.31,4.31,0.46,5.16,0.46c2.93,0,3.31-0.15,3.31-1.46v-36.91h-9.86v48.01
				c0,3.78,0.08,6.47,0.39,9.17h-8.86c0.31-2.7,0.46-4.93,0.46-9.25v-49.7c0-1.39,0-1.93-0.08-3.39l-2.39,1.62
				c-2.62,1.7-4.78,2.77-9.4,4.7v34.06c4.08-1.46,5.39-2,9.63-3.85l0.08,8.17c-6.09,2.77-9.32,4.01-17.8,6.86
				c-1.46,0.46-2.39,0.85-3.31,1.23l-2.62-8.63c1.77-0.15,3.16-0.46,5.86-1.16V781.28z"/>
			<path class="st10" d="M1187.1,775.11c1.54-3.78,2.54-7.17,3.31-11.25l8.86,1.23c-1.54,4.55-2.23,6.32-3.93,10.02h4.24
				c3.78-0.08,6.01-0.15,6.63-0.23c-0.08,0.62-0.08,0.62-0.15,2.31c0,0.15-0.08,0.39-0.08,4.32v6.47
				c5.01-5.86,10.09-16.8,11.25-24.27l8.86,1.46c-0.46,1.08-0.62,1.46-1.08,3.01c-0.31,1.16-1.54,4.7-2.23,6.47h16.41
				c3.16,0,5.01-0.08,6.55-0.31c-0.23,2-0.23,2-0.31,6.09c-0.15,9.55-0.85,27.36-1.16,31.29c-1.46,19.5-3.47,22.42-15.33,22.42
				c-1.85,0-3.78-0.08-7.63-0.31c-0.31-3.47-0.85-5.63-2.16-8.78c4.85,0.77,7.47,1.08,9.86,1.08c3.31,0,4.47-0.62,5.16-2.85
				c1.62-4.78,2.62-19.34,2.85-40.53h-17.88c-3.01,5.93-5.24,9.25-9.86,14.49c-1.16-1.7-1.39-1.93-3.31-3.85v29.59
				c0,2.85,0.08,5.47,0.31,7.63h-8.25v-4.62h-10.94v6.78h-8.4c0.31-2.31,0.39-5.16,0.39-9.94v-40.07c0-4.08-0.08-5.86-0.31-7.86
				c1.31,0.15,2.85,0.23,4.08,0.23h2.7H1187.1z M1187.02,796.22h11.02v-13.64h-11.02V796.22z M1187.02,818.57h11.02V803.7h-11.02
				V818.57z M1223.32,815.1c-2.54-7.4-6.32-14.79-9.94-19.57l7.01-3.78c4.62,6.63,7.01,10.87,10.71,19.11L1223.32,815.1z"/>
			<path class="st10" d="M1268.71,828.97c4.32-4.93,5.93-7.63,8.09-13.79l6.94,2.93c-2.23,6.86-3.85,10.02-7.94,15.64
				L1268.71,828.97z M1275.57,774.11c2.85-4.24,4.47-7.4,5.63-11.02l8.32,1.46c-3.85,6.55-3.85,6.55-5.7,9.32
				c5.47-0.23,5.47-0.23,11.17-0.77c-1.16-1.54-1.77-2.31-3.62-4.55l5.86-2.85c3.47,3.85,6.09,7.32,9.63,12.71v-8.4
				c0-2.77-0.08-4.32-0.39-6.09h8.55c-0.31,1.77-0.39,3.01-0.39,5.7v1.39c4.93-1,6.94-1.54,10.94-3.01
				c3.54-1.39,4.16-1.62,6.32-3.01l6.01,6.16c-1.39,0.54-8.78,2.85-10.63,3.39c-4.62,1.23-7.32,1.85-12.64,2.85v1.93
				c0,2.08,1,2.31,8.86,2.31c4.16,0,6.16-0.31,6.86-1.08c0.77-0.77,1-2,1.16-6.01c3.16,1.31,4.01,1.54,7.32,2.16
				c-0.54,5.78-1.23,8.01-3.31,9.48c-1.85,1.39-5.24,1.85-13.25,1.85c-6.7,0-9.86-0.23-11.71-0.92c-2.62-1-3.7-2.62-3.7-5.63v-2.7
				l-6.24,3.31c-0.85-1.62-1.31-2.31-1.85-3.31c-7.55,0.92-11.64,1.31-23.35,2.08c-1.46,0.08-3.01,0.23-5.32,0.54l-0.77-7.47
				c1.16,0.08,2.16,0.15,3.54,0.15h1.93H1275.57z M1280.96,807.17c0,3.39,0.08,4.85,0.31,6.7h-8.09c0.31-2.39,0.39-4.39,0.39-8.09
				v-17.26c0-2.93-0.08-4.32-0.23-6.16c2.16,0.23,3.7,0.31,6.09,0.31h16.03c2.93,0,4.7-0.08,6.86-0.31
				c-0.23,1.54-0.31,3.47-0.31,7.24v16.41c0,3.39-0.85,4.85-3.24,6.01c-1.54,0.69-4.24,1.08-7.78,1.08c-0.54,0-1.39,0-2.93-0.08
				c-0.15-2-0.69-3.93-1.62-6.16c2,0.23,4.01,0.39,5.32,0.39c2.62,0,2.93-0.15,2.93-1.7v-1.31h-13.72V807.17z M1294.68,791.22v-2.54
				h-13.72v2.54H1294.68z M1294.68,799.08v-2.7h-13.72v2.7H1294.68z M1295.68,814.64c-0.31,1.62-0.39,2.54-0.39,4.47v6.01
				c0,1.62,1.23,1.93,8.55,1.93c7.94,0,10.4-0.31,11.25-1.46c0.62-0.92,0.92-2.77,1-6.47c2.85,1.31,4.78,1.93,7.94,2.39
				c-0.46,6.78-1.54,9.71-4.01,11.17c-2.08,1.16-5.55,1.46-17.11,1.46c-13.41,0-15.57-0.85-15.57-6.16v-7.94
				c0-2.16-0.08-3.62-0.39-5.39H1295.68z M1307.24,824.35c-2.93-3.7-4.78-5.7-8.25-8.63l5.55-3.93c3.85,3.08,5.62,4.78,8.48,8.01
				L1307.24,824.35z M1314.87,789.52c-0.31,1.85-0.39,2.85-0.39,5.86c7.17-1.16,13.64-3.24,16.8-5.39l5.55,6.16
				c-1.23,0.31-1.31,0.31-3.31,1c-4.7,1.62-11.02,3.08-19.03,4.47v2.54c0,1.93,1.16,2.31,7.24,2.31c6.24,0,7.55-0.15,8.48-0.77
				c0.85-0.62,1.16-2.08,1.39-6.24c2.93,1.23,4.01,1.46,7.4,2.08c-0.54,6.09-1.16,8.09-3.31,9.63c-1.93,1.46-5.93,2-14.72,2
				c-11.48,0-14.26-1.23-14.26-6.55v-11.02c0-2.77-0.08-4.39-0.39-6.09H1314.87z M1332.05,833.21c-2.93-6.47-5.7-11.1-9.32-15.49
				l6.63-3.24c4.39,5.16,7.17,9.17,10.02,14.41L1332.05,833.21z"/>
			<path class="st10" d="M1375.13,789.06c-0.15,11.79-0.85,20.19-2.16,27.2c-1.39,7.24-3.08,12.1-6.55,18.34
				c-2.16-3.08-3.78-4.85-6.47-7.09c2.54-4.7,3.78-8.09,4.78-13.18c1.7-8.01,2.23-16.49,2.23-34.75c0-5.7-0.08-7.71-0.31-10.48
				c2.7,0.23,5.39,0.39,8.71,0.39h19.19v-1.7c0-1.7-0.15-2.93-0.39-4.39h9.17c-0.31,1.31-0.39,2.54-0.39,4.47v1.62h19.11
				c4.32,0,7.01-0.15,9.32-0.46v8.01c-2.54-0.23-4.47-0.31-8.09-0.31h-5.93v5.39h7.4c3.16,0,4.85-0.08,6.86-0.39v7.63
				c-1.77-0.23-3.31-0.31-6.86-0.31h-7.4v7.24c0,1.93,0.08,3.54,0.23,4.85c-1.77-0.08-1.93-0.08-5.01-0.08h-21.42
				c-3.01,0-4.01,0-5.39,0.08c0.15-1.31,0.31-3.24,0.31-4.85v-7.24H1375.13z M1423.6,809.71c-0.69,0.69-0.77,0.77-1.46,1.54
				c-4.16,4.85-8.09,8.4-12.71,11.56c6.7,2.39,13.41,3.47,22.81,3.62c-1.46,2.85-2.39,5.32-3.24,8.71
				c-12.95-1.62-20.65-3.7-27.82-7.47c-8.01,3.85-14.64,5.78-26.35,7.55c-0.62-2.93-1.23-4.55-3.01-7.94
				c9.71-0.69,15.64-1.93,22.04-4.32c-4.32-3.31-6.63-5.63-10.48-10.94c-2.7,0.08-3.85,0.15-5.47,0.31v-7.24
				c1.93,0.31,4.16,0.39,8.25,0.39h26.89c3.16,0,4.55-0.08,6.4-0.23L1423.6,809.71z M1386.07,782.12v-5.39h-10.87v5.39H1386.07z
				 M1392.7,812.02c2.31,2.85,4.78,4.78,8.94,7.24c4.08-2.39,6.09-3.93,9.56-7.24H1392.7z M1409.26,782.12v-5.39h-15.1v5.39H1409.26
				z M1394.16,794.38h15.1v-5.32h-15.1V794.38z"/>
		</g>
		<g>
			<path class="st10" d="M491.78,799.54c0-22.22,9.02-33.79,22.86-33.79s22.77,11.66,22.77,33.79c0,22.31-8.92,34.42-22.77,34.42
				S491.78,821.85,491.78,799.54z M524.74,799.54c0-18.21-4.28-23.31-10.11-23.31c-5.83,0-10.2,5.1-10.2,23.31
				c0,18.3,4.37,23.95,10.2,23.95C520.46,823.49,524.74,817.84,524.74,799.54z"/>
			<path class="st10" d="M552.97,826.31l7.1-8.1c2.37,2.73,6.47,4.83,10.38,4.83c7.74,0,14.12-5.65,14.66-22.58
				c-3.73,4.64-9.47,7.38-13.84,7.38c-11.29,0-19.4-6.56-19.4-20.31c0-13.39,9.65-21.76,21.22-21.76c12.75,0,24.22,9.74,24.22,32.33
				c0,25.04-12.48,35.88-26.04,35.88C562.99,833.96,556.89,830.41,552.97,826.31z M573.82,798.26c3.55,0,7.83-2.09,10.93-7.19
				c-1.37-11.02-5.92-15.21-11.47-15.21c-5.01,0-9.11,3.82-9.11,11.66C564.17,794.89,567.91,798.26,573.82,798.26z"/>
			<path class="st10" d="M615.16,825.22c0-5.01,3.55-8.74,8.29-8.74c4.83,0,8.38,3.73,8.38,8.74c0,4.92-3.55,8.74-8.38,8.74
				C618.72,833.96,615.16,830.14,615.16,825.22z"/>
			<path class="st10" d="M649.13,799.54c0-22.22,9.02-33.79,22.86-33.79s22.77,11.66,22.77,33.79c0,22.31-8.92,34.42-22.77,34.42
				S649.13,821.85,649.13,799.54z M682.1,799.54c0-18.21-4.28-23.31-10.11-23.31c-5.83,0-10.2,5.1-10.2,23.31
				c0,18.3,4.37,23.95,10.2,23.95C677.82,823.49,682.1,817.84,682.1,799.54z"/>
			<path class="st10" d="M707.95,824.58l6.28-8.47c4.01,3.92,8.92,6.92,15.03,6.92c6.83,0,11.47-3.28,11.47-8.92
				c0-6.37-3.92-10.29-18.58-10.29v-9.65c12.38,0,16.39-4.1,16.39-9.74c0-5.1-3.28-8.11-9.02-8.11c-4.83,0-8.74,2.28-12.75,6.01
				l-6.83-8.2c5.83-5.1,12.29-8.38,20.22-8.38c13.02,0,21.86,6.38,21.86,17.67c0,7.1-4.19,12.02-11.2,14.84v0.46
				c7.56,2,13.39,7.56,13.39,16.21c0,12.02-10.84,19.03-23.68,19.03C719.88,833.96,712.69,829.95,707.95,824.58z"/>
		</g>
	</g>
</g>
<g id="主題">
</g>
<g id="色票_x3001_可編輯字">
</g>
</svg>
